<svg width="1788" height="400" viewBox="0 0 1788 400" fill="none" xmlns="http://www.w3.org/2000/svg">
<path d="M2.8756 166.006H287.547C288.119 166.006 288.68 165.841 289.163 165.533C289.645 165.224 290.029 164.783 290.269 164.263L316.132 108.218C316.826 106.714 316.171 104.931 314.668 104.236C314.274 104.054 313.844 103.96 313.41 103.96L24.4917 103.995C58.4482 42.0187 124.261 0 199.882 0C310.274 0 399.764 89.543 399.764 200C399.764 310.457 310.274 400 199.882 400C89.4902 400 0 310.457 0 200C0 188.412 0.985 177.054 2.8756 166.006V166.006ZM125.926 328C125.926 330.209 127.715 332 129.923 332H135.096L197.927 252.989H247.356C247.929 252.989 248.489 252.825 248.972 252.516C249.454 252.207 249.838 251.767 250.078 251.247L275.913 195.271C276.095 194.876 276.189 194.447 276.189 194.013C276.189 192.356 274.847 191.013 273.191 191.013H125.926V328H125.926Z" fill="#FF9800"/>
<path d="M500.748 124.732C500.748 123.516 501.166 122.49 502.002 121.654C502.838 120.818 503.864 120.4 505.08 120.4H609.28C610.937 120.4 612.28 121.743 612.28 123.4C612.28 123.835 612.186 124.264 612.003 124.659L602.402 145.438C602.082 146.131 601.569 146.718 600.926 147.13C600.283 147.541 599.535 147.76 598.771 147.76H530.388V190.624H576.824C578.481 190.624 579.824 191.967 579.824 193.624C579.824 194.059 579.73 194.488 579.547 194.883L569.94 215.663C569.62 216.356 569.108 216.943 568.464 217.354C567.821 217.766 567.073 217.984 566.31 217.984H530.388V275.668C530.388 276.884 529.97 277.91 529.134 278.746C528.298 279.582 527.272 280 526.056 280H505.08C503.864 280 502.838 279.582 502.002 278.746C501.166 277.91 500.748 276.884 500.748 275.668V124.732ZM713.088 225.508L690.288 175.348H689.604L667.26 225.508H713.088ZM618.468 280C616.796 280 615.542 279.392 614.706 278.176C613.87 276.96 613.832 275.592 614.592 274.072L685.5 120.628C686.412 118.956 687.704 118.12 689.376 118.12H691.656C692.872 118.12 693.746 118.348 694.278 118.804C694.81 119.26 695.228 119.868 695.532 120.628L765.756 274.072C766.516 275.592 766.478 276.96 765.642 278.176C764.806 279.392 763.552 280 761.88 280H742.044C740.372 280 739.042 279.658 738.054 278.974C737.066 278.29 736.192 277.112 735.432 275.44L724.26 250.816H656.088L644.916 275.44C644.46 276.656 643.7 277.72 642.636 278.632C641.572 279.544 640.128 280 638.304 280H618.468ZM798.504 122.224C798.504 121.008 798.922 120.02 799.758 119.26C800.594 118.5 801.62 118.12 802.836 118.12H808.536L903.384 218.896H903.612V124.732C903.612 123.516 904.03 122.49 904.866 121.654C905.702 120.818 906.728 120.4 907.944 120.4H928.92C930.136 120.4 931.162 120.818 931.998 121.654C932.834 122.49 933.252 123.516 933.252 124.732V278.176C933.252 279.392 932.834 280.38 931.998 281.14C931.162 281.9 930.136 282.28 928.92 282.28H923.448L828.144 177.628H827.916V275.668C827.916 276.884 827.498 277.91 826.662 278.746C825.826 279.582 824.8 280 823.584 280H802.836C801.62 280 800.594 279.582 799.758 278.746C798.922 277.91 798.504 276.884 798.504 275.668V122.224V122.224ZM1064.5 225.508L1041.7 175.348H1041.01L1018.67 225.508H1064.5ZM969.876 280C968.204 280 966.95 279.392 966.114 278.176C965.278 276.96 965.24 275.592 966 274.072L1036.91 120.628C1037.82 118.956 1039.11 118.12 1040.78 118.12H1043.06C1044.28 118.12 1045.15 118.348 1045.69 118.804C1046.22 119.26 1046.64 119.868 1046.94 120.628L1117.16 274.072C1117.92 275.592 1117.89 276.96 1117.05 278.176C1116.21 279.392 1114.96 280 1113.29 280H1093.45C1091.78 280 1090.45 279.658 1089.46 278.974C1088.47 278.29 1087.6 277.112 1086.84 275.44L1075.67 250.816H1007.5L996.324 275.44C995.868 276.656 995.108 277.72 994.044 278.632C992.98 279.544 991.536 280 989.712 280H969.876V280ZM1171.34 147.76H1136.46C1135.24 147.76 1134.22 147.342 1133.38 146.506C1132.55 145.67 1132.13 144.644 1132.13 143.428V124.732C1132.13 123.516 1132.55 122.49 1133.38 121.654C1134.22 120.818 1135.24 120.4 1136.46 120.4H1236.1C1237.31 120.4 1238.34 120.818 1239.17 121.654C1240.01 122.49 1240.43 123.516 1240.43 124.732V143.428C1240.43 144.644 1240.01 145.67 1239.17 146.506C1238.34 147.342 1237.31 147.76 1236.1 147.76H1201.21V275.668C1201.21 276.884 1200.79 277.91 1199.96 278.746C1199.12 279.582 1198.1 280 1196.88 280H1175.68C1174.46 280 1173.43 279.582 1172.6 278.746C1171.76 277.91 1171.34 276.884 1171.34 275.668V147.76V147.76ZM1276.14 124.732C1276.14 123.516 1276.56 122.49 1277.39 121.654C1278.23 120.818 1279.26 120.4 1280.47 120.4H1301.68C1302.89 120.4 1303.92 120.818 1304.75 121.654C1305.59 122.49 1306.01 123.516 1306.01 124.732V275.668C1306.01 276.884 1305.59 277.91 1304.75 278.746C1303.92 279.582 1302.89 280 1301.68 280H1280.47C1279.26 280 1278.23 279.582 1277.39 278.746C1276.56 277.91 1276.14 276.884 1276.14 275.668V124.732ZM1347.88 200.428C1347.88 189.028 1350.04 178.312 1354.37 168.28C1358.71 158.248 1364.56 149.546 1371.93 142.174C1379.3 134.802 1388 128.95 1398.04 124.618C1408.07 120.286 1418.78 118.12 1430.18 118.12C1441.74 118.12 1451.88 119.906 1460.62 123.478C1469.36 127.05 1477.61 132.332 1485.36 139.324C1487.64 141.452 1487.72 143.58 1485.59 145.708L1471.68 160.072C1469.86 162.048 1467.96 162.048 1465.98 160.072C1461.12 155.816 1455.64 152.51 1449.56 150.154C1443.48 147.798 1437.25 146.62 1430.87 146.62C1423.57 146.62 1416.81 148.026 1410.58 150.838C1404.34 153.65 1398.99 157.488 1394.5 162.352C1390.02 167.216 1386.48 172.878 1383.9 179.338C1381.32 185.798 1380.02 192.6 1380.02 199.744C1380.02 206.888 1381.32 213.652 1383.9 220.036C1386.48 226.42 1390.06 232.006 1394.62 236.794C1399.18 241.582 1404.57 245.382 1410.8 248.194C1417.04 251.006 1423.8 252.412 1431.1 252.412C1437.94 252.412 1444.24 251.234 1450.02 248.878C1455.8 246.522 1461.12 243.368 1465.98 239.416C1466.89 238.656 1467.88 238.276 1468.94 238.276C1470.01 238.276 1470.92 238.656 1471.68 239.416L1485.82 254.008C1486.73 254.768 1487.11 255.794 1486.96 257.086C1486.8 258.378 1486.35 259.404 1485.59 260.164C1477.84 267.764 1469.21 273.35 1459.71 276.922C1450.21 280.494 1440.37 282.28 1430.18 282.28C1418.78 282.28 1408.07 280.152 1398.04 275.896C1388 271.64 1379.3 265.826 1371.93 258.454C1364.56 251.082 1358.71 242.418 1354.37 232.462C1350.04 222.506 1347.88 211.828 1347.88 200.428V200.428ZM1605.2 225.508L1582.4 175.348H1581.72L1559.38 225.508H1605.2ZM1510.58 280C1508.91 280 1507.66 279.392 1506.82 278.176C1505.99 276.96 1505.95 275.592 1506.71 274.072L1577.62 120.628C1578.53 118.956 1579.82 118.12 1581.49 118.12H1583.77C1584.99 118.12 1585.86 118.348 1586.39 118.804C1586.93 119.26 1587.34 119.868 1587.65 120.628L1657.87 274.072C1658.63 275.592 1658.59 276.96 1657.76 278.176C1656.92 279.392 1655.67 280 1654 280H1634.16C1632.49 280 1631.16 279.658 1630.17 278.974C1629.18 278.29 1628.31 277.112 1627.55 275.44L1616.38 250.816H1548.2L1537.03 275.44C1536.58 276.656 1535.82 277.72 1534.75 278.632C1533.69 279.544 1532.24 280 1530.42 280H1510.58V280ZM1690.62 124.732C1690.62 123.516 1691.04 122.49 1691.87 121.654C1692.71 120.818 1693.74 120.4 1694.95 120.4H1715.93C1717.14 120.4 1718.17 120.818 1719.01 121.654C1719.84 122.49 1720.26 123.516 1720.26 124.732V252.64H1784.75C1786.41 252.64 1787.75 253.983 1787.75 255.64C1787.75 256.075 1787.65 256.504 1787.47 256.898L1777.87 277.678C1777.55 278.371 1777.04 278.958 1776.4 279.37C1775.75 279.781 1775 280 1774.24 280H1694.95C1693.74 280 1692.71 279.582 1691.87 278.746C1691.04 277.91 1690.62 276.884 1690.62 275.668V124.732V124.732Z" fill="#484848"/>
</svg>
